<svg width="75" height="41" viewBox="0 0 75 41" fill="none" xmlns="http://www.w3.org/2000/svg">
<path d="M0 14.7639C0 6.62495 6.59791 0.0270386 14.7368 0.0270386H60.2105C68.3494 0.0270386 74.9474 6.62495 74.9474 14.7639V14.7639C74.9474 22.9028 68.3495 29.5007 60.2105 29.5007H53.8947H47.8537C44.9041 29.5007 41.9949 30.1875 39.3567 31.5066L25.2102 38.5798C23.8804 39.2447 22.3158 38.2777 22.3158 36.791V30.7639C22.3158 30.0663 21.7503 29.5007 21.0526 29.5007V29.5007H14.7368C6.59791 29.5007 0 22.9028 0 14.7639V14.7639Z" fill="#3B82F6"/>
<path d="M20.4359 17.6479H24.1242C24.0502 18.8568 23.7171 19.93 23.125 20.8675C22.5411 21.805 21.7229 22.5369 20.6703 23.0632C19.6258 23.5895 18.3676 23.8527 16.8956 23.8527C15.7443 23.8527 14.7122 23.6553 13.7994 23.2606C12.8865 22.8576 12.1053 22.282 11.4556 21.5336C10.8142 20.7853 10.3249 19.8807 9.98769 18.8198C9.65052 17.7589 9.48193 16.5706 9.48193 15.2548V14.0089C9.48193 12.6932 9.65463 11.5048 10 10.444C10.3536 9.3749 10.8553 8.46618 11.505 7.71783C12.1629 6.96947 12.9482 6.39381 13.861 5.99085C14.7739 5.58789 15.7936 5.38641 16.9203 5.38641C18.417 5.38641 19.6793 5.6578 20.7073 6.20056C21.7434 6.74332 22.5453 7.49168 23.1127 8.44562C23.6883 9.39957 24.0337 10.4851 24.1489 11.7022H20.4482C20.4071 10.9785 20.2632 10.3659 20.0165 9.86421C19.7698 9.35434 19.3956 8.97194 18.8939 8.71701C18.4005 8.45385 17.7426 8.32227 16.9203 8.32227C16.3035 8.32227 15.7648 8.4374 15.3043 8.66766C14.8438 8.89793 14.4573 9.24743 14.1448 9.71618C13.8323 10.1849 13.5979 10.777 13.4416 11.4925C13.2936 12.1997 13.2196 13.0303 13.2196 13.9843V15.2548C13.2196 16.1841 13.2895 17.0024 13.4293 17.7096C13.5691 18.4086 13.7829 19.0007 14.0707 19.4859C14.3668 19.9629 14.7451 20.3247 15.2056 20.5714C15.6744 20.8099 16.2377 20.9292 16.8956 20.9292C17.6686 20.9292 18.3059 20.8058 18.8076 20.5591C19.3092 20.3124 19.6916 19.9464 19.9548 19.4612C20.2262 18.9761 20.3865 18.3716 20.4359 17.6479Z" fill="white"/>
<path d="M30.292 22.1011L33.8323 10.2589H37.6439L32.278 25.6167C32.1629 25.9538 32.0066 26.3157 31.8092 26.7022C31.6201 27.0887 31.361 27.4547 31.0321 27.8001C30.7114 28.1537 30.3043 28.4415 29.8109 28.6636C29.3257 28.8856 28.7295 28.9966 28.0222 28.9966C27.6851 28.9966 27.4096 28.9761 27.1957 28.9349C26.9819 28.8938 26.727 28.8362 26.4309 28.7622V26.1594C26.5214 26.1594 26.616 26.1594 26.7147 26.1594C26.8133 26.1677 26.9079 26.1718 26.9984 26.1718C27.4671 26.1718 27.8495 26.1183 28.1456 26.0114C28.4416 25.9045 28.6801 25.74 28.861 25.518C29.042 25.3042 29.1859 25.0246 29.2928 24.6792L30.292 22.1011ZM28.8117 10.2589L31.7106 19.93L32.2163 23.6923L29.7985 23.9514L25 10.2589H28.8117Z" fill="white"/>
<path d="M46.0691 20.5961V14.6504C46.0691 14.2228 45.9992 13.8568 45.8594 13.5525C45.7196 13.24 45.5017 12.9974 45.2056 12.8247C44.9178 12.652 44.5436 12.5657 44.0831 12.5657C43.6883 12.5657 43.3471 12.6356 43.0592 12.7754C42.7714 12.907 42.5494 13.1002 42.3931 13.3552C42.2369 13.6019 42.1587 13.8938 42.1587 14.231H38.6061C38.6061 13.6636 38.7377 13.1249 39.0008 12.615C39.264 12.1052 39.6464 11.657 40.1481 11.2705C40.6497 10.8757 41.2459 10.5673 41.9367 10.3453C42.6357 10.1233 43.417 10.0122 44.2805 10.0122C45.3166 10.0122 46.2377 10.1849 47.0436 10.5303C47.8495 10.8757 48.4828 11.3938 48.9433 12.0846C49.412 12.7754 49.6464 13.6389 49.6464 14.6751V20.3864C49.6464 21.1183 49.6916 21.7187 49.7821 22.1874C49.8726 22.6479 50.0041 23.0509 50.1768 23.3963V23.606H46.5872C46.4145 23.2441 46.2829 22.7918 46.1925 22.2491C46.1102 21.6981 46.0691 21.1471 46.0691 20.5961ZM46.5379 15.4769L46.5625 17.4876H44.5765C44.1078 17.4876 43.7007 17.541 43.3553 17.6479C43.0099 17.7548 42.7262 17.907 42.5041 18.1043C42.2821 18.2935 42.1176 18.5155 42.0107 18.7705C41.912 19.0254 41.8627 19.305 41.8627 19.6093C41.8627 19.9136 41.9326 20.189 42.0724 20.4358C42.2122 20.6742 42.4137 20.8634 42.6768 21.0032C42.94 21.1348 43.2484 21.2006 43.602 21.2006C44.1365 21.2006 44.6012 21.0937 44.9959 20.8798C45.3906 20.666 45.6949 20.4029 45.9087 20.0904C46.1308 19.7779 46.2459 19.4818 46.2541 19.2022L47.1916 20.7071C47.0601 21.0443 46.8791 21.3938 46.6489 21.7557C46.4268 22.1175 46.1431 22.4588 45.7977 22.7795C45.4523 23.092 45.037 23.3511 44.5518 23.5566C44.0666 23.754 43.491 23.8527 42.8249 23.8527C41.9778 23.8527 41.2089 23.6841 40.5181 23.3469C39.8356 23.0015 39.2928 22.5287 38.8898 21.9284C38.4951 21.3198 38.2977 20.629 38.2977 19.856C38.2977 19.157 38.4293 18.5361 38.6925 17.9933C38.9556 17.4506 39.3421 16.9941 39.852 16.6241C40.3701 16.2458 41.0156 15.9621 41.7887 15.7729C42.5617 15.5756 43.4581 15.4769 44.4778 15.4769H46.5379Z" fill="white"/>
<path d="M59.6012 17.2038H55.0247V14.3173H59.6012C60.3084 14.3173 60.8841 14.2022 61.3281 13.9719C61.7722 13.7335 62.0971 13.4045 62.3027 12.9851C62.5082 12.5657 62.611 12.0928 62.611 11.5665C62.611 11.032 62.5082 10.5344 62.3027 10.0739C62.0971 9.61339 61.7722 9.24332 61.3281 8.96372C60.8841 8.68411 60.3084 8.54431 59.6012 8.54431H56.3076V23.606H52.6069V5.64546H59.6012C61.0074 5.64546 62.2122 5.90039 63.2155 6.41026C64.227 6.91191 65 7.60681 65.5346 8.49497C66.0691 9.38312 66.3364 10.3987 66.3364 11.5418C66.3364 12.7014 66.0691 13.7047 65.5346 14.5517C65 15.3987 64.227 16.0525 63.2155 16.5131C62.2122 16.9736 61.0074 17.2038 59.6012 17.2038Z" fill="white"/>
</svg>
