<svg width="40" height="40" viewBox="0 0 40 40" fill="none" xmlns="http://www.w3.org/2000/svg">
<rect width="40" height="40" rx="8" fill="#3B82F6"/>
<path d="M17.2 11.0444C17.3047 10.4422 17.8516 10 18.4916 10H21.5089C22.1489 10 22.6959 10.4422 22.8006 11.0444L23.0484 12.4678C23.1218 12.8833 23.4127 13.23 23.799 13.4344C23.8851 13.4789 23.97 13.5267 24.055 13.5756C24.4332 13.7933 24.8928 13.8611 25.3059 13.7133L26.7221 13.2067C27.0123 13.1025 27.3318 13.1 27.6237 13.1997C27.9157 13.2994 28.1611 13.4948 28.3162 13.7511L29.8243 16.2478C29.9791 16.5041 30.0337 16.8046 29.9783 17.0957C29.9229 17.3869 29.7611 17.6498 29.5218 17.8378L28.3546 18.7567C28.0137 19.0244 27.845 19.4378 27.8543 19.8589C27.8559 19.9533 27.8559 20.0478 27.8543 20.1422C27.845 20.5622 28.0137 20.9756 28.3546 21.2433L29.5229 22.1622C30.0163 22.5511 30.1443 23.2233 29.8255 23.7511L28.3151 26.2478C28.1601 26.504 27.915 26.6995 27.6233 26.7994C27.3316 26.8993 27.0122 26.8972 26.7221 26.7933L25.3059 26.2867C24.8928 26.1389 24.4332 26.2067 24.0538 26.4244C23.9695 26.4735 23.8841 26.5209 23.7978 26.5667C23.4127 26.77 23.1218 27.1167 23.0484 27.5322L22.8006 28.9556C22.6959 29.5589 22.1489 30 21.5089 30H18.4905C17.8505 30 17.3047 29.5578 17.1988 28.9556L16.951 27.5322C16.8788 27.1167 16.5879 26.77 16.2016 26.5656C16.1153 26.5201 16.0299 26.4731 15.9456 26.4244C15.5674 26.2067 15.1078 26.1389 14.6935 26.2867L13.2774 26.7933C12.9873 26.8972 12.668 26.8996 12.3763 26.7999C12.0847 26.7002 11.8395 26.505 11.6843 26.2489L10.1751 23.7522C10.0203 23.4959 9.96569 23.1954 10.0211 22.9043C10.0765 22.6131 10.2383 22.3502 10.4776 22.1622L11.6459 21.2433C11.9857 20.9767 12.1544 20.5622 12.1463 20.1422C12.1445 20.0478 12.1445 19.9533 12.1463 19.8589C12.1544 19.4367 11.9857 19.0244 11.6459 18.7567L10.4776 17.8378C10.2386 17.6499 10.077 17.3871 10.0216 17.0962C9.96618 16.8053 10.0206 16.5051 10.1751 16.2489L11.6843 13.7522C11.8393 13.4957 12.0846 13.3001 12.3766 13.2002C12.6686 13.1002 12.9882 13.1025 13.2785 13.2067L14.6935 13.7133C15.1078 13.8611 15.5674 13.7933 15.9456 13.5756C16.0294 13.5267 16.1155 13.48 16.2016 13.4333C16.5879 13.23 16.8788 12.8833 16.951 12.4678L17.2 11.0444Z" stroke="white" stroke-width="1.5" stroke-linecap="round" stroke-linejoin="round"/>
<path d="M24 20C24 21.0609 23.5786 22.0783 22.8284 22.8284C22.0783 23.5786 21.0609 24 20 24C18.9391 24 17.9217 23.5786 17.1716 22.8284C16.4214 22.0783 16 21.0609 16 20C16 18.9391 16.4214 17.9217 17.1716 17.1716C17.9217 16.4214 18.9391 16 20 16C21.0609 16 22.0783 16.4214 22.8284 17.1716C23.5786 17.9217 24 18.9391 24 20Z" stroke="white" stroke-width="1.5" stroke-linecap="round" stroke-linejoin="round"/>
</svg>
