<svg width="34" height="32" viewBox="0 0 34 32" fill="none" xmlns="http://www.w3.org/2000/svg">
<mask id="mask0_45_328" style="mask-type:luminance" maskUnits="userSpaceOnUse" x="0" y="0" width="34" height="33">
<path d="M33.2234 0H0.223389V32.32H33.2234V0Z" fill="white"/>
</mask>
<g mask="url(#mask0_45_328)">
<path d="M0.223389 15.5136C0.223389 8.20042 0.223389 4.54384 2.5431 2.27191C4.86283 0 8.59635 0 16.0634 0H17.3834C24.8504 0 28.584 0 30.9037 2.27191C33.2234 4.54384 33.2234 8.20042 33.2234 15.5136V16.8064C33.2234 24.1196 33.2234 27.7762 30.9037 30.0481C28.584 32.32 24.8504 32.32 17.3834 32.32H16.0634C8.59635 32.32 4.86283 32.32 2.5431 30.0481C0.223389 27.7762 0.223389 24.1196 0.223389 16.8064V15.5136Z" fill="#0077FF"/>
<path d="M17.7822 23.2839C10.261 23.2839 5.971 18.2339 5.79224 9.83075H9.55975C9.6835 15.9985 12.4609 18.611 14.6609 19.1497V9.83075H18.2086V15.15C20.381 14.9211 22.6633 12.4971 23.4333 9.83075H26.9809C26.3896 13.1166 23.9146 15.5406 22.1546 16.5371C23.9146 17.3451 26.7335 19.4594 27.806 23.2839H23.9009C23.0621 20.7253 20.9723 18.7457 18.2086 18.4763V23.2839H17.7822Z" fill="white"/>
</g>
</svg>
