<svg width="45" height="24" viewBox="0 0 45 24" fill="none" xmlns="http://www.w3.org/2000/svg">
<path d="M0 8.84211C0 3.95875 3.95874 0 8.8421 0H36.1263C41.0097 0 44.9684 3.95875 44.9684 8.84211V8.84211C44.9684 13.7255 41.0097 17.6842 36.1263 17.6842H32.3368H30.5063C27.5567 17.6842 24.6475 18.371 22.0093 19.6901L15.9158 22.7368C14.7551 23.3172 13.3895 22.4732 13.3895 21.1755V18.4421C13.3895 18.0235 13.0502 17.6842 12.6316 17.6842V17.6842H8.8421C3.95874 17.6842 0 13.7255 0 8.84211V8.84211Z" fill="#3B82F6"/>
<path d="M12.2613 10.5725H14.4743C14.4299 11.2978 14.2301 11.9417 13.8748 12.5042C13.5245 13.0667 13.0335 13.5059 12.402 13.8217C11.7753 14.1375 11.0204 14.2953 10.1372 14.2953C9.44637 14.2953 8.82712 14.1769 8.27943 13.9401C7.73173 13.6983 7.26298 13.3529 6.87318 12.9039C6.48831 12.4549 6.19472 11.9121 5.99242 11.2756C5.79012 10.6391 5.68896 9.9261 5.68896 9.13663V8.3891C5.68896 7.59962 5.79258 6.88663 5.99982 6.25012C6.21199 5.60867 6.51298 5.06344 6.90278 4.61442C7.29752 4.16541 7.76873 3.82002 8.31643 3.57824C8.86413 3.33646 9.47597 3.21558 10.152 3.21558C11.05 3.21558 11.8074 3.37841 12.4242 3.70406C13.0459 4.02972 13.527 4.47873 13.8674 5.0511C14.2128 5.62347 14.4201 6.27479 14.4891 7.00505H12.2687C12.2441 6.57084 12.1577 6.20324 12.0097 5.90225C11.8617 5.59633 11.6372 5.36689 11.3362 5.21393C11.0401 5.05604 10.6454 4.97709 10.152 4.97709C9.78189 4.97709 9.4587 5.04617 9.18239 5.18433C8.90607 5.32248 8.67416 5.53219 8.48666 5.81344C8.29916 6.09469 8.15854 6.44995 8.06479 6.87923C7.97597 7.30357 7.93156 7.80192 7.93156 8.37429V9.13663C7.93156 9.69419 7.9735 10.1851 8.05739 10.6095C8.14127 11.0289 8.26956 11.3842 8.44225 11.6753C8.61989 11.9615 8.84686 12.1786 9.12318 12.3266C9.40443 12.4697 9.74242 12.5412 10.1372 12.5412C10.601 12.5412 10.9834 12.4672 11.2844 12.3192C11.5853 12.1712 11.8148 11.9516 11.9727 11.6605C12.1355 11.3694 12.2317 11.0067 12.2613 10.5725Z" fill="white"/>
<path d="M18.175 13.2444L20.2992 6.1391H22.5862L19.3666 15.3537C19.2975 15.556 19.2038 15.7731 19.0853 16.005C18.9719 16.237 18.8164 16.4565 18.6191 16.6638C18.4266 16.8759 18.1824 17.0486 17.8863 17.1819C17.5952 17.3151 17.2375 17.3817 16.8131 17.3817C16.6108 17.3817 16.4455 17.3694 16.3173 17.3447C16.189 17.32 16.036 17.2855 15.8584 17.2411V15.6794C15.9126 15.6794 15.9694 15.6794 16.0286 15.6794C16.0878 15.6843 16.1446 15.6868 16.1988 15.6868C16.4801 15.6868 16.7095 15.6547 16.8872 15.5906C17.0648 15.5264 17.2079 15.4277 17.3164 15.2945C17.425 15.1662 17.5113 14.9985 17.5755 14.7912L18.175 13.2444ZM17.2868 6.1391L19.0261 11.9417L19.3296 14.1991L17.8789 14.3546L14.9998 6.1391H17.2868Z" fill="white"/>
<path d="M27.6413 12.3414V8.77396C27.6413 8.51739 27.5993 8.29781 27.5154 8.11525C27.4316 7.92775 27.3008 7.78219 27.1232 7.67857C26.9505 7.57495 26.726 7.52314 26.4497 7.52314C26.2128 7.52314 26.008 7.56508 25.8353 7.64896C25.6626 7.72791 25.5294 7.84387 25.4357 7.99683C25.3419 8.14485 25.2951 8.32002 25.2951 8.52232H23.1635C23.1635 8.18186 23.2424 7.85867 23.4003 7.55275C23.5582 7.24683 23.7876 6.97791 24.0886 6.746C24.3896 6.50916 24.7474 6.32413 25.1618 6.19091C25.5812 6.05768 26.05 5.99107 26.5681 5.99107C27.1898 5.99107 27.7424 6.09469 28.226 6.30192C28.7095 6.50916 29.0895 6.82002 29.3658 7.23449C29.647 7.64896 29.7876 8.16706 29.7876 8.78877V12.2156C29.7876 12.6547 29.8148 13.0149 29.8691 13.2962C29.9233 13.5725 30.0023 13.8143 30.1059 14.0215V14.1473H27.9521C27.8485 13.9302 27.7696 13.6588 27.7153 13.3332C27.6659 13.0026 27.6413 12.672 27.6413 12.3414ZM27.9225 9.26985L27.9373 10.4763H26.7457C26.4645 10.4763 26.2202 10.5083 26.013 10.5725C25.8057 10.6366 25.6355 10.7279 25.5023 10.8463C25.3691 10.9598 25.2704 11.093 25.2062 11.246C25.147 11.399 25.1174 11.5667 25.1174 11.7493C25.1174 11.9319 25.1594 12.0972 25.2432 12.2452C25.3271 12.3883 25.448 12.5018 25.6059 12.5856C25.7638 12.6646 25.9488 12.7041 26.161 12.7041C26.4817 12.7041 26.7605 12.6399 26.9974 12.5116C27.2342 12.3833 27.4168 12.2254 27.5451 12.0379C27.6783 11.8504 27.7474 11.6728 27.7523 11.505L28.3148 12.408C28.2358 12.6103 28.1273 12.82 27.9891 13.0371C27.8559 13.2542 27.6857 13.459 27.4784 13.6514C27.2712 13.8389 27.022 13.9944 26.7309 14.1177C26.4398 14.2361 26.0944 14.2953 25.6947 14.2953C25.1865 14.2953 24.7251 14.1942 24.3107 13.9919C23.9011 13.7847 23.5755 13.5009 23.3337 13.1407C23.0969 12.7756 22.9784 12.3611 22.9784 11.8973C22.9784 11.4779 23.0574 11.1054 23.2153 10.7797C23.3732 10.4541 23.6051 10.1802 23.911 9.95817C24.2219 9.7312 24.6092 9.56097 25.073 9.44748C25.5368 9.32906 26.0747 9.26985 26.6865 9.26985H27.9225Z" fill="white"/>
<path d="M35.7605 10.306H33.0146V8.57413H35.7605C36.1849 8.57413 36.5302 8.50505 36.7967 8.36689C37.0631 8.2238 37.258 8.02643 37.3814 7.77479C37.5048 7.52314 37.5664 7.23942 37.5664 6.92364C37.5664 6.60291 37.5048 6.30439 37.3814 6.02808C37.258 5.75176 37.0631 5.52972 36.7967 5.36196C36.5302 5.19419 36.1849 5.11031 35.7605 5.11031H33.7844V14.1473H31.564V3.371H35.7605C36.6043 3.371 37.3271 3.52396 37.9291 3.82989C38.536 4.13087 38.9998 4.54781 39.3205 5.08071C39.6413 5.6136 39.8016 6.22298 39.8016 6.90883C39.8016 7.60456 39.6413 8.20653 39.3205 8.71475C38.9998 9.22298 38.536 9.61525 37.9291 9.89156C37.3271 10.1679 36.6043 10.306 35.7605 10.306Z" fill="white"/>
</svg>
