<svg width="43" height="32" viewBox="0 0 43 32" fill="none" xmlns="http://www.w3.org/2000/svg">
<g clip-path="url(#clip0_45_334)">
<path d="M2.9837 32H9.80551V15.5152L0.0600586 8.24243V29.0909C0.0600586 30.7006 1.37082 32 2.9837 32Z" fill="#4285F4"/>
<path d="M33.1946 32H40.0164C41.6341 32 42.94 30.6958 42.94 29.0909V8.24243L33.1946 15.5152" fill="#34A853"/>
<path d="M33.1946 2.9091V15.5152L42.94 8.24244V4.36365C42.94 0.766073 38.8128 -1.28484 35.9233 0.87274" fill="#FBBC04"/>
<path d="M9.80554 15.5151V2.90909L21.5001 11.6364L33.1946 2.90909V15.5151L21.5001 24.2424" fill="#EA4335"/>
<path d="M0.0600586 4.36365V8.24244L9.80551 15.5152V2.9091L7.07679 0.87274C4.18239 -1.28484 0.0600586 0.766073 0.0600586 4.36365Z" fill="#C5221F"/>
</g>
<defs>
<clipPath id="clip0_45_334">
<rect width="42.88" height="32" fill="white" transform="translate(0.0600586)"/>
</clipPath>
</defs>
</svg>
