<svg width="40" height="40" viewBox="0 0 40 40" fill="none" xmlns="http://www.w3.org/2000/svg">
<rect width="40" height="40" rx="20" fill="#3B82F6"/>
<g clip-path="url(#clip0_88_44)">
<path d="M14.827 14.175C14.647 14.4599 14.4068 14.7019 14.1233 14.8842C13.8399 15.0664 13.5199 15.1845 13.186 15.23C12.806 15.284 12.429 15.342 12.052 15.405C10.999 15.58 10.25 16.507 10.25 17.574V26C10.25 26.5967 10.4871 27.169 10.909 27.591C11.331 28.0129 11.9033 28.25 12.5 28.25H27.5C28.0967 28.25 28.669 28.0129 29.091 27.591C29.5129 27.169 29.75 26.5967 29.75 26V17.574C29.75 16.507 29 15.58 27.948 15.405C27.5707 15.3421 27.1927 15.2838 26.814 15.23C26.4802 15.1843 26.1605 15.0662 25.8772 14.884C25.5939 14.7018 25.3539 14.4598 25.174 14.175L24.352 12.859C24.1674 12.5591 23.9132 12.3081 23.611 12.1272C23.3089 11.9463 22.9675 11.841 22.616 11.82C20.8733 11.7264 19.1267 11.7264 17.384 11.82C17.0325 11.841 16.6911 11.9463 16.389 12.1272C16.0868 12.3081 15.8326 12.5591 15.648 12.859L14.827 14.175Z" stroke="white" stroke-width="1.5" stroke-linecap="round" stroke-linejoin="round"/>
<path d="M24.5 20.75C24.5 21.9435 24.0259 23.0881 23.182 23.932C22.3381 24.7759 21.1935 25.25 20 25.25C18.8065 25.25 17.6619 24.7759 16.818 23.932C15.9741 23.0881 15.5 21.9435 15.5 20.75C15.5 19.5565 15.9741 18.4119 16.818 17.568C17.6619 16.7241 18.8065 16.25 20 16.25C21.1935 16.25 22.3381 16.7241 23.182 17.568C24.0259 18.4119 24.5 19.5565 24.5 20.75ZM26.75 18.5H26.758V18.508H26.75V18.5Z" stroke="white" stroke-width="1.5" stroke-linecap="round" stroke-linejoin="round"/>
</g>
<defs>
<clipPath id="clip0_88_44">
<rect width="24" height="24" fill="white" transform="translate(8 8)"/>
</clipPath>
</defs>
</svg>
